<?xml version="1.0" encoding="UTF-8" standalone="no"?>
<!DOCTYPE svg PUBLIC "-//W3C//DTD SVG 1.1//EN"
 "http://www.w3.org/Graphics/SVG/1.1/DTD/svg11.dtd">
<!-- Generated by graphviz version 2.43.0 (0)
 -->
<!-- Title: %3 Pages: 1 -->
<svg width="127pt" height="212pt"
 viewBox="0.00 0.00 126.55 212.00" xmlns="http://www.w3.org/2000/svg" xmlns:xlink="http://www.w3.org/1999/xlink">
<g id="graph0" class="graph" transform="scale(1 1) rotate(0) translate(4 208)">
<title>%3</title>
<polygon fill="white" stroke="transparent" points="-4,4 -4,-208 122.55,-208 122.55,4 -4,4"/>
<!-- fake -->
<g id="node1" class="node">
<title>fake</title>
</g>
<!-- 0 -->
<g id="node2" class="node">
<title>0</title>
<ellipse fill="none" stroke="black" cx="30.55" cy="-113" rx="27" ry="18"/>
<text text-anchor="middle" x="30.55" y="-109.3" font-family="Times,serif" font-size="14.00">0</text>
</g>
<!-- fake&#45;&gt;0 -->
<g id="edge1" class="edge">
<title>fake&#45;&gt;0</title>
<path fill="none" stroke="black" stroke-width="2" d="M30.55,-167.81C30.55,-159.79 30.55,-150.05 30.55,-141.07"/>
<polygon fill="black" stroke="black" stroke-width="2" points="34.05,-141.03 30.55,-131.03 27.05,-141.03 34.05,-141.03"/>
</g>
<!-- 0&#45;&gt;0 -->
<g id="edge3" class="edge">
<title>0&#45;&gt;0</title>
<path fill="none" stroke="black" d="M55.99,-119.69C66.58,-120.15 75.55,-117.92 75.55,-113 75.55,-109.77 71.68,-107.7 66.04,-106.79"/>
<polygon fill="black" stroke="black" points="66.15,-103.29 55.99,-106.31 65.81,-110.28 66.15,-103.29"/>
<text text-anchor="middle" x="97.05" y="-109.3" font-family="Times,serif" font-size="14.00">b | ~a</text>
</g>
<!-- 1 -->
<g id="node3" class="node">
<title>1</title>
<ellipse fill="none" stroke="black" cx="30.55" cy="-22" rx="18" ry="18"/>
<ellipse fill="none" stroke="black" cx="30.55" cy="-22" rx="22" ry="22"/>
<text text-anchor="middle" x="30.55" y="-18.3" font-family="Times,serif" font-size="14.00">1</text>
</g>
<!-- 0&#45;&gt;1 -->
<g id="edge4" class="edge">
<title>0&#45;&gt;1</title>
<path fill="none" stroke="black" d="M30.55,-94.84C30.55,-83.44 30.55,-68.13 30.55,-54.58"/>
<polygon fill="black" stroke="black" points="34.05,-54.19 30.55,-44.19 27.05,-54.19 34.05,-54.19"/>
<text text-anchor="middle" x="56.55" y="-65.8" font-family="Times,serif" font-size="14.00">a &amp; ~b</text>
</g>
<!-- 1&#45;&gt;1 -->
<g id="edge2" class="edge">
<title>1&#45;&gt;1</title>
<path fill="none" stroke="black" d="M51.13,-30.37C61.39,-31.53 70.55,-28.74 70.55,-22 70.55,-17.68 66.79,-14.99 61.39,-13.91"/>
<polygon fill="black" stroke="black" points="61.22,-10.41 51.13,-13.63 61.03,-17.4 61.22,-10.41"/>
<text text-anchor="middle" x="87.55" y="-18.3" font-family="Times,serif" font-size="14.00">True</text>
</g>
</g>
</svg>
